<mxfile host="app.diagrams.net" agent="Mozilla/5.0 (Windows NT 10.0; Win64; x64) AppleWebKit/537.36 (KHTML, like Gecko) Chrome/140.0.0.0 Safari/537.36" version="28.2.0">
  <diagram name="Page-1" id="ixJSkVkBwFZioYLOljhV">
    <mxGraphModel dx="2847" dy="1249" grid="1" gridSize="10" guides="1" tooltips="1" connect="1" arrows="1" fold="1" page="1" pageScale="1" pageWidth="827" pageHeight="1169" math="0" shadow="0">
      <root>
        <mxCell id="0" />
        <mxCell id="1" parent="0" />
        <mxCell id="qoUrT7d6lG7RUCfjTTM9-2" style="rounded=1;whiteSpace=wrap;html=1;fillColor=#FFFFFF;strokeColor=#000000;shadow=1;fontFamily=Times New Roman;fontSize=13;" parent="1" vertex="1">
          <mxGeometry x="100" y="140" width="300" height="600" as="geometry" />
        </mxCell>
        <mxCell id="qoUrT7d6lG7RUCfjTTM9-3" value="" style="rounded=0;whiteSpace=wrap;html=1;fillColor=#f5f5f5;strokeColor=#666666;fontFamily=Times New Roman;fontSize=13;fontColor=#333333;" parent="1" vertex="1">
          <mxGeometry x="120" y="180" width="260" height="520" as="geometry" />
        </mxCell>
        <mxCell id="qoUrT7d6lG7RUCfjTTM9-4" style="shape=ellipse;whiteSpace=wrap;html=1;fillColor=#000000;strokeColor=none;fontFamily=Times New Roman;fontSize=13;" parent="1" vertex="1">
          <mxGeometry x="230" y="150" width="20" height="10" as="geometry" />
        </mxCell>
        <mxCell id="qoUrT7d6lG7RUCfjTTM9-13" value="&lt;font&gt;HỌC TIẾNG ANH&lt;/font&gt;" style="rounded=0;whiteSpace=wrap;html=1;fontFamily=Times New Roman;fontSize=13;" parent="1" vertex="1">
          <mxGeometry x="120" y="180" width="260" height="180" as="geometry" />
        </mxCell>
        <mxCell id="qoUrT7d6lG7RUCfjTTM9-16" value="BÀI TẬP LUYỆN TẬP" style="rounded=0;whiteSpace=wrap;html=1;fontFamily=Times New Roman;fontSize=13;" parent="1" vertex="1">
          <mxGeometry x="120" y="360" width="260" height="180" as="geometry" />
        </mxCell>
        <mxCell id="qoUrT7d6lG7RUCfjTTM9-18" value="THOÁT ỨNG DỤNG" style="rounded=0;whiteSpace=wrap;html=1;fontFamily=Times New Roman;fontSize=13;" parent="1" vertex="1">
          <mxGeometry x="120" y="540" width="260" height="160" as="geometry" />
        </mxCell>
        <mxCell id="qoUrT7d6lG7RUCfjTTM9-20" value="Trang chủ 1" style="text;html=1;align=center;verticalAlign=middle;whiteSpace=wrap;rounded=0;fontFamily=Times New Roman;fontSize=13;" parent="1" vertex="1">
          <mxGeometry x="160" y="100" width="130" height="30" as="geometry" />
        </mxCell>
        <mxCell id="qoUrT7d6lG7RUCfjTTM9-21" style="rounded=1;whiteSpace=wrap;html=1;fillColor=#FFFFFF;strokeColor=#000000;shadow=1;fontFamily=Times New Roman;fontSize=13;" parent="1" vertex="1">
          <mxGeometry x="580" y="140" width="300" height="600" as="geometry" />
        </mxCell>
        <mxCell id="qoUrT7d6lG7RUCfjTTM9-22" style="shape=ellipse;whiteSpace=wrap;html=1;fillColor=#000000;strokeColor=none;fontFamily=Times New Roman;fontSize=13;" parent="1" vertex="1">
          <mxGeometry x="720" y="150" width="20" height="10" as="geometry" />
        </mxCell>
        <mxCell id="qoUrT7d6lG7RUCfjTTM9-24" style="rounded=0;whiteSpace=wrap;html=1;fillColor=#F5F5F5;strokeColor=none;fontFamily=Times New Roman;fontSize=13;" parent="1" vertex="1">
          <mxGeometry x="600" y="180" width="260" height="520" as="geometry" />
        </mxCell>
        <mxCell id="qoUrT7d6lG7RUCfjTTM9-26" value="LUYỆN NGHE" style="rounded=0;whiteSpace=wrap;html=1;fontFamily=Times New Roman;fontSize=13;" parent="1" vertex="1">
          <mxGeometry x="600" y="310" width="260" height="130" as="geometry" />
        </mxCell>
        <mxCell id="qoUrT7d6lG7RUCfjTTM9-27" value="LUYỆN NÓI" style="rounded=0;whiteSpace=wrap;html=1;fontFamily=Times New Roman;fontSize=13;" parent="1" vertex="1">
          <mxGeometry x="600" y="440" width="260" height="130" as="geometry" />
        </mxCell>
        <mxCell id="qoUrT7d6lG7RUCfjTTM9-30" value="QUAY LẠI" style="rounded=0;whiteSpace=wrap;html=1;fontFamily=Times New Roman;fontSize=13;" parent="1" vertex="1">
          <mxGeometry x="600" y="570" width="260" height="130" as="geometry" />
        </mxCell>
        <mxCell id="qoUrT7d6lG7RUCfjTTM9-32" value="BẢNG CHỮ CÁI&amp;nbsp;" style="rounded=0;whiteSpace=wrap;html=1;fontFamily=Times New Roman;fontSize=13;" parent="1" vertex="1">
          <mxGeometry x="600" y="180" width="130" height="130" as="geometry" />
        </mxCell>
        <mxCell id="qoUrT7d6lG7RUCfjTTM9-34" value="TỪ VỰNG CƠ BẢN" style="rounded=0;whiteSpace=wrap;html=1;fontFamily=Times New Roman;fontSize=13;" parent="1" vertex="1">
          <mxGeometry x="730" y="180" width="130" height="130" as="geometry" />
        </mxCell>
        <mxCell id="qoUrT7d6lG7RUCfjTTM9-35" value="Trang Học TA&amp;nbsp;" style="text;html=1;align=center;verticalAlign=middle;whiteSpace=wrap;rounded=0;fontFamily=Times New Roman;fontSize=13;" parent="1" vertex="1">
          <mxGeometry x="700" y="110" width="60" height="30" as="geometry" />
        </mxCell>
        <mxCell id="qoUrT7d6lG7RUCfjTTM9-36" style="rounded=1;whiteSpace=wrap;html=1;fillColor=#FFFFFF;strokeColor=#000000;shadow=1;fontFamily=Times New Roman;fontSize=13;" parent="1" vertex="1">
          <mxGeometry x="1010" y="140" width="300" height="600" as="geometry" />
        </mxCell>
        <mxCell id="qoUrT7d6lG7RUCfjTTM9-37" style="rounded=0;whiteSpace=wrap;html=1;fillColor=#F5F5F5;strokeColor=none;fontFamily=Times New Roman;fontSize=13;" parent="1" vertex="1">
          <mxGeometry x="1030" y="170" width="260" height="520" as="geometry" />
        </mxCell>
        <mxCell id="qoUrT7d6lG7RUCfjTTM9-38" value="BÀI 1" style="rounded=0;whiteSpace=wrap;html=1;fontFamily=Times New Roman;fontSize=13;" parent="1" vertex="1">
          <mxGeometry x="1030" y="170" width="130" height="150" as="geometry" />
        </mxCell>
        <mxCell id="qoUrT7d6lG7RUCfjTTM9-39" value="BÀI 2" style="rounded=0;whiteSpace=wrap;html=1;fontFamily=Times New Roman;fontSize=13;" parent="1" vertex="1">
          <mxGeometry x="1160" y="170" width="130" height="150" as="geometry" />
        </mxCell>
        <mxCell id="qoUrT7d6lG7RUCfjTTM9-40" value="BÀI 3" style="rounded=0;whiteSpace=wrap;html=1;fontFamily=Times New Roman;fontSize=13;" parent="1" vertex="1">
          <mxGeometry x="1030" y="320" width="130" height="150" as="geometry" />
        </mxCell>
        <mxCell id="qoUrT7d6lG7RUCfjTTM9-41" value="BÀI 4" style="rounded=0;whiteSpace=wrap;html=1;fontFamily=Times New Roman;fontSize=13;" parent="1" vertex="1">
          <mxGeometry x="1160" y="320" width="130" height="150" as="geometry" />
        </mxCell>
        <mxCell id="qoUrT7d6lG7RUCfjTTM9-42" value="BÀI 5" style="rounded=0;whiteSpace=wrap;html=1;fontFamily=Times New Roman;fontSize=13;" parent="1" vertex="1">
          <mxGeometry x="1030" y="470" width="130" height="150" as="geometry" />
        </mxCell>
        <mxCell id="qoUrT7d6lG7RUCfjTTM9-43" value="BÀI 6" style="rounded=0;whiteSpace=wrap;html=1;fontFamily=Times New Roman;fontSize=13;" parent="1" vertex="1">
          <mxGeometry x="1160" y="470" width="130" height="150" as="geometry" />
        </mxCell>
        <mxCell id="qoUrT7d6lG7RUCfjTTM9-44" value="QUAY LẠI" style="ellipse;whiteSpace=wrap;html=1;fontFamily=Times New Roman;fontSize=13;" parent="1" vertex="1">
          <mxGeometry x="1130" y="620" width="70" height="80" as="geometry" />
        </mxCell>
        <mxCell id="qoUrT7d6lG7RUCfjTTM9-45" value="TRANG TRƯỚC" style="rounded=0;whiteSpace=wrap;html=1;fontFamily=Times New Roman;fontSize=13;" parent="1" vertex="1">
          <mxGeometry x="1030" y="620" width="100" height="80" as="geometry" />
        </mxCell>
        <mxCell id="qoUrT7d6lG7RUCfjTTM9-46" value="TRANG SAU" style="rounded=0;whiteSpace=wrap;html=1;fontFamily=Times New Roman;fontSize=13;" parent="1" vertex="1">
          <mxGeometry x="1200" y="620" width="90" height="80" as="geometry" />
        </mxCell>
        <mxCell id="qoUrT7d6lG7RUCfjTTM9-47" value="Trang thực hành chung giữa bài và unit&lt;div&gt;&lt;br&gt;&lt;/div&gt;" style="text;html=1;align=center;verticalAlign=middle;whiteSpace=wrap;rounded=0;fontFamily=Times New Roman;fontSize=13;" parent="1" vertex="1">
          <mxGeometry x="1120" y="80" width="60" height="30" as="geometry" />
        </mxCell>
        <mxCell id="qoUrT7d6lG7RUCfjTTM9-49" style="shape=ellipse;whiteSpace=wrap;html=1;fillColor=#000000;strokeColor=none;fontFamily=Times New Roman;fontSize=13;" parent="1" vertex="1">
          <mxGeometry x="1150" y="150" width="20" height="10" as="geometry" />
        </mxCell>
        <mxCell id="qoUrT7d6lG7RUCfjTTM9-86" style="rounded=1;whiteSpace=wrap;html=1;fillColor=#FFFFFF;strokeColor=#000000;shadow=1;fontFamily=Times New Roman;fontSize=13;" parent="1" vertex="1">
          <mxGeometry x="90" y="780" width="300" height="600" as="geometry" />
        </mxCell>
        <mxCell id="qoUrT7d6lG7RUCfjTTM9-87" style="shape=ellipse;whiteSpace=wrap;html=1;fillColor=#000000;strokeColor=none;fontFamily=Times New Roman;fontSize=13;" parent="1" vertex="1">
          <mxGeometry x="230" y="790" width="20" height="10" as="geometry" />
        </mxCell>
        <mxCell id="qoUrT7d6lG7RUCfjTTM9-88" style="rounded=0;whiteSpace=wrap;html=1;fillColor=#F5F5F5;strokeColor=none;fontFamily=Times New Roman;fontSize=13;" parent="1" vertex="1">
          <mxGeometry x="110" y="810" width="260" height="520" as="geometry" />
        </mxCell>
        <mxCell id="qoUrT7d6lG7RUCfjTTM9-89" value="Trang bài nghe(Chung)&lt;div&gt;&lt;div&gt;&lt;br&gt;&lt;/div&gt;&lt;/div&gt;" style="text;html=1;align=center;verticalAlign=middle;whiteSpace=wrap;rounded=0;fontFamily=Times New Roman;fontSize=13;" parent="1" vertex="1">
          <mxGeometry x="210" y="750" width="60" height="30" as="geometry" />
        </mxCell>
        <mxCell id="qoUrT7d6lG7RUCfjTTM9-90" value="CHỦ ĐỀ BÀI NGHE" style="rounded=0;whiteSpace=wrap;html=1;fontFamily=Times New Roman;fontSize=13;" parent="1" vertex="1">
          <mxGeometry x="110" y="810" width="260" height="90" as="geometry" />
        </mxCell>
        <mxCell id="qoUrT7d6lG7RUCfjTTM9-91" value="BÀI NGHE(NHẤP VÀO ĐỂ NGHE)" style="rounded=0;whiteSpace=wrap;html=1;fontFamily=Times New Roman;fontSize=13;" parent="1" vertex="1">
          <mxGeometry x="110" y="900" width="260" height="210" as="geometry" />
        </mxCell>
        <mxCell id="qoUrT7d6lG7RUCfjTTM9-92" value="BẢN DỊCH TIẾNG VIỆT" style="rounded=0;whiteSpace=wrap;html=1;fontFamily=Times New Roman;fontSize=13;" parent="1" vertex="1">
          <mxGeometry x="110" y="1110" width="260" height="120" as="geometry" />
        </mxCell>
        <mxCell id="qoUrT7d6lG7RUCfjTTM9-94" style="rounded=1;whiteSpace=wrap;html=1;fillColor=#FFFFFF;strokeColor=#000000;shadow=1;fontFamily=Times New Roman;fontSize=13;" parent="1" vertex="1">
          <mxGeometry x="550" y="790" width="300" height="600" as="geometry" />
        </mxCell>
        <mxCell id="qoUrT7d6lG7RUCfjTTM9-95" style="shape=ellipse;whiteSpace=wrap;html=1;fillColor=#000000;strokeColor=none;fontFamily=Times New Roman;fontSize=13;" parent="1" vertex="1">
          <mxGeometry x="690" y="800" width="20" height="10" as="geometry" />
        </mxCell>
        <mxCell id="qoUrT7d6lG7RUCfjTTM9-96" style="rounded=0;whiteSpace=wrap;html=1;fillColor=#F5F5F5;strokeColor=none;fontFamily=Times New Roman;fontSize=13;" parent="1" vertex="1">
          <mxGeometry x="570" y="820" width="260" height="520" as="geometry" />
        </mxCell>
        <mxCell id="qoUrT7d6lG7RUCfjTTM9-97" value="" style="edgeStyle=orthogonalEdgeStyle;rounded=0;orthogonalLoop=1;jettySize=auto;html=1;fontFamily=Times New Roman;fontSize=13;" parent="1" source="qoUrT7d6lG7RUCfjTTM9-98" target="qoUrT7d6lG7RUCfjTTM9-103" edge="1">
          <mxGeometry relative="1" as="geometry" />
        </mxCell>
        <mxCell id="qoUrT7d6lG7RUCfjTTM9-98" value="CHỦ ĐỀ BÀI NÓI" style="rounded=0;whiteSpace=wrap;html=1;fontFamily=Times New Roman;fontSize=13;" parent="1" vertex="1">
          <mxGeometry x="570" y="820" width="260" height="90" as="geometry" />
        </mxCell>
        <mxCell id="qoUrT7d6lG7RUCfjTTM9-99" value="BÀI NÓI(NHẤP VÀO ĐỂ NGHE)" style="rounded=0;whiteSpace=wrap;html=1;fontFamily=Times New Roman;fontSize=13;" parent="1" vertex="1">
          <mxGeometry x="570" y="910" width="260" height="150" as="geometry" />
        </mxCell>
        <mxCell id="qoUrT7d6lG7RUCfjTTM9-100" value="BẢN DỊCH TIẾNG VIỆT" style="rounded=0;whiteSpace=wrap;html=1;fontFamily=Times New Roman;fontSize=13;" parent="1" vertex="1">
          <mxGeometry x="570" y="1210" width="260" height="70" as="geometry" />
        </mxCell>
        <mxCell id="qoUrT7d6lG7RUCfjTTM9-101" value="NHẤP VÀO ĐỂ NÓI" style="rounded=0;whiteSpace=wrap;html=1;fontFamily=Times New Roman;fontSize=13;" parent="1" vertex="1">
          <mxGeometry x="570" y="1060" width="130" height="150" as="geometry" />
        </mxCell>
        <mxCell id="qoUrT7d6lG7RUCfjTTM9-102" value="NHẤP VÀO ĐỂ NGHE&amp;nbsp; BÀI NÓI CỦA MÌNH" style="rounded=0;whiteSpace=wrap;html=1;fontFamily=Times New Roman;fontSize=13;" parent="1" vertex="1">
          <mxGeometry x="700" y="1060" width="130" height="150" as="geometry" />
        </mxCell>
        <mxCell id="qoUrT7d6lG7RUCfjTTM9-103" value="Trang bài nói (Chung)&lt;div&gt;&lt;div&gt;&lt;br&gt;&lt;/div&gt;&lt;/div&gt;" style="text;html=1;align=center;verticalAlign=middle;whiteSpace=wrap;rounded=0;fontFamily=Times New Roman;fontSize=13;" parent="1" vertex="1">
          <mxGeometry x="670" y="750" width="80" height="30" as="geometry" />
        </mxCell>
        <mxCell id="qoUrT7d6lG7RUCfjTTM9-106" style="rounded=1;whiteSpace=wrap;html=1;fillColor=#FFFFFF;strokeColor=#000000;shadow=1;fontFamily=Times New Roman;fontSize=13;" parent="1" vertex="1">
          <mxGeometry x="1410" y="140" width="300" height="600" as="geometry" />
        </mxCell>
        <mxCell id="qoUrT7d6lG7RUCfjTTM9-107" style="shape=ellipse;whiteSpace=wrap;html=1;fillColor=#000000;strokeColor=none;fontFamily=Times New Roman;fontSize=13;" parent="1" vertex="1">
          <mxGeometry x="1550" y="150" width="20" height="10" as="geometry" />
        </mxCell>
        <mxCell id="qoUrT7d6lG7RUCfjTTM9-108" style="rounded=0;whiteSpace=wrap;html=1;fillColor=#F5F5F5;strokeColor=none;fontFamily=Times New Roman;fontSize=13;" parent="1" vertex="1">
          <mxGeometry x="1430" y="170" width="260" height="520" as="geometry" />
        </mxCell>
        <mxCell id="qoUrT7d6lG7RUCfjTTM9-109" value="Bài...: CHỦ ĐỀ TỪ VỰNG&lt;div&gt;Unit ...&lt;/div&gt;" style="rounded=0;whiteSpace=wrap;html=1;fontFamily=Times New Roman;fontSize=13;" parent="1" vertex="1">
          <mxGeometry x="1430" y="170" width="260" height="90" as="geometry" />
        </mxCell>
        <mxCell id="qoUrT7d6lG7RUCfjTTM9-112" value="Trang học từ vựng unit" style="text;html=1;align=center;verticalAlign=middle;whiteSpace=wrap;rounded=0;fontFamily=Times New Roman;fontSize=13;" parent="1" vertex="1">
          <mxGeometry x="1520" y="100" width="60" height="30" as="geometry" />
        </mxCell>
        <mxCell id="qoUrT7d6lG7RUCfjTTM9-113" value="TỪ 1:Bản Tiếng Việt&lt;div&gt;&lt;br&gt;&lt;/div&gt;" style="rounded=0;whiteSpace=wrap;html=1;fontFamily=Times New Roman;fontSize=13;" parent="1" vertex="1">
          <mxGeometry x="1430" y="260" width="130" height="120" as="geometry" />
        </mxCell>
        <mxCell id="qoUrT7d6lG7RUCfjTTM9-114" value="TỪ 2:Bản Tiếng Việt&lt;div&gt;&lt;br&gt;&lt;/div&gt;" style="rounded=0;whiteSpace=wrap;html=1;fontFamily=Times New Roman;fontSize=13;" parent="1" vertex="1">
          <mxGeometry x="1560" y="260" width="130" height="120" as="geometry" />
        </mxCell>
        <mxCell id="qoUrT7d6lG7RUCfjTTM9-115" value="Từ 3: Bản Tiếng Việt&lt;div&gt;&lt;br&gt;&lt;/div&gt;" style="rounded=0;whiteSpace=wrap;html=1;fontFamily=Times New Roman;fontSize=13;" parent="1" vertex="1">
          <mxGeometry x="1430" y="380" width="130" height="120" as="geometry" />
        </mxCell>
        <mxCell id="qoUrT7d6lG7RUCfjTTM9-116" value="Từ 4: Bản Tiếng Việt&lt;div&gt;&lt;br&gt;&lt;/div&gt;" style="rounded=0;whiteSpace=wrap;html=1;fontFamily=Times New Roman;fontSize=13;" parent="1" vertex="1">
          <mxGeometry x="1560" y="380" width="130" height="120" as="geometry" />
        </mxCell>
        <mxCell id="qoUrT7d6lG7RUCfjTTM9-117" value="Từ 5: Bản Tiếng Việt&lt;div&gt;&lt;br&gt;&lt;/div&gt;" style="rounded=0;whiteSpace=wrap;html=1;fontFamily=Times New Roman;fontSize=13;" parent="1" vertex="1">
          <mxGeometry x="1430" y="500" width="130" height="120" as="geometry" />
        </mxCell>
        <mxCell id="qoUrT7d6lG7RUCfjTTM9-118" value="Từ 6: Bản Tiếng Việt&lt;div&gt;&lt;br&gt;&lt;/div&gt;" style="rounded=0;whiteSpace=wrap;html=1;fontFamily=Times New Roman;fontSize=13;" parent="1" vertex="1">
          <mxGeometry x="1560" y="500" width="130" height="120" as="geometry" />
        </mxCell>
        <mxCell id="qoUrT7d6lG7RUCfjTTM9-119" value="QUAY LẠI" style="rounded=0;whiteSpace=wrap;html=1;fontFamily=Times New Roman;fontSize=13;" parent="1" vertex="1">
          <mxGeometry x="570" y="1280" width="260" height="70" as="geometry" />
        </mxCell>
        <mxCell id="qoUrT7d6lG7RUCfjTTM9-120" value="QUAY LẠI" style="rounded=0;whiteSpace=wrap;html=1;fontFamily=Times New Roman;fontSize=13;" parent="1" vertex="1">
          <mxGeometry x="110" y="1230" width="260" height="100" as="geometry" />
        </mxCell>
        <mxCell id="qoUrT7d6lG7RUCfjTTM9-121" value="QUAY LẠI" style="rounded=0;whiteSpace=wrap;html=1;fontFamily=Times New Roman;fontSize=13;" parent="1" vertex="1">
          <mxGeometry x="1430" y="620" width="260" height="70" as="geometry" />
        </mxCell>
        <mxCell id="C0sIoQWcLX1TJ2bj2l7G-10" style="rounded=1;whiteSpace=wrap;html=1;fillColor=#FFFFFF;strokeColor=#000000;shadow=1;fontFamily=Times New Roman;fontSize=13;" parent="1" vertex="1">
          <mxGeometry x="1000" y="800" width="300" height="600" as="geometry" />
        </mxCell>
        <mxCell id="C0sIoQWcLX1TJ2bj2l7G-11" style="shape=ellipse;whiteSpace=wrap;html=1;fillColor=#000000;strokeColor=none;fontFamily=Times New Roman;fontSize=13;" parent="1" vertex="1">
          <mxGeometry x="1140" y="810" width="20" height="10" as="geometry" />
        </mxCell>
        <mxCell id="C0sIoQWcLX1TJ2bj2l7G-12" style="rounded=0;whiteSpace=wrap;html=1;fillColor=#F5F5F5;strokeColor=none;fontFamily=Times New Roman;fontSize=13;" parent="1" vertex="1">
          <mxGeometry x="1020" y="830" width="260" height="520" as="geometry" />
        </mxCell>
        <mxCell id="C0sIoQWcLX1TJ2bj2l7G-13" value="" style="edgeStyle=orthogonalEdgeStyle;rounded=0;orthogonalLoop=1;jettySize=auto;html=1;fontFamily=Times New Roman;fontSize=13;" parent="1" target="C0sIoQWcLX1TJ2bj2l7G-19" edge="1">
          <mxGeometry relative="1" as="geometry">
            <mxPoint x="1150" y="830.0000000000005" as="sourcePoint" />
          </mxGeometry>
        </mxCell>
        <mxCell id="C0sIoQWcLX1TJ2bj2l7G-19" value="Trang bảng chữ cái 1&amp;nbsp;&lt;div&gt;&lt;div&gt;&lt;br&gt;&lt;/div&gt;&lt;/div&gt;" style="text;html=1;align=center;verticalAlign=middle;whiteSpace=wrap;rounded=0;fontFamily=Times New Roman;fontSize=13;" parent="1" vertex="1">
          <mxGeometry x="1110" y="760" width="80" height="30" as="geometry" />
        </mxCell>
        <mxCell id="C0sIoQWcLX1TJ2bj2l7G-20" value="QUAY LẠI" style="rounded=0;whiteSpace=wrap;html=1;fontFamily=Times New Roman;fontSize=13;" parent="1" vertex="1">
          <mxGeometry x="1020" y="1290" width="260" height="70" as="geometry" />
        </mxCell>
        <mxCell id="C0sIoQWcLX1TJ2bj2l7G-21" value="Bài...: GIỚI THIỆU BẢNG CHỮ CÁI VÀ HỌC PHÁT ÂM&amp;nbsp;&lt;div&gt;&lt;br&gt;&lt;/div&gt;" style="rounded=0;whiteSpace=wrap;html=1;fontFamily=Times New Roman;fontSize=13;" parent="1" vertex="1">
          <mxGeometry x="1020" y="830" width="260" height="90" as="geometry" />
        </mxCell>
        <mxCell id="C0sIoQWcLX1TJ2bj2l7G-22" value="NHẤP VÀO ĐỂ NGHE BẢNG CHỮ CÁI TIẾNG ANH" style="rounded=0;whiteSpace=wrap;html=1;fontFamily=Times New Roman;fontSize=13;" parent="1" vertex="1">
          <mxGeometry x="1020" y="920" width="260" height="90" as="geometry" />
        </mxCell>
        <mxCell id="C0sIoQWcLX1TJ2bj2l7G-23" value="NHẤP VÀO ĐỂ NGHE CHỮ SỐ 1" style="rounded=0;whiteSpace=wrap;html=1;fontFamily=Times New Roman;fontSize=13;" parent="1" vertex="1">
          <mxGeometry x="1020" y="1010" width="260" height="90" as="geometry" />
        </mxCell>
        <mxCell id="C0sIoQWcLX1TJ2bj2l7G-24" value="NHẤP VÀO ĐỂ NGHE CHỮ SỐ 2" style="rounded=0;whiteSpace=wrap;html=1;fontFamily=Times New Roman;fontSize=13;" parent="1" vertex="1">
          <mxGeometry x="1020" y="1100" width="260" height="90" as="geometry" />
        </mxCell>
        <mxCell id="C0sIoQWcLX1TJ2bj2l7G-28" value="" style="edgeStyle=orthogonalEdgeStyle;rounded=0;orthogonalLoop=1;jettySize=auto;html=1;fontFamily=Times New Roman;fontSize=13;" parent="1" target="C0sIoQWcLX1TJ2bj2l7G-20" edge="1">
          <mxGeometry relative="1" as="geometry">
            <mxPoint x="1215" y="1190" as="sourcePoint" />
          </mxGeometry>
        </mxCell>
        <mxCell id="C0sIoQWcLX1TJ2bj2l7G-27" value="NHẤP VÀO ĐỂ NÓI" style="rounded=0;whiteSpace=wrap;html=1;fontFamily=Times New Roman;fontSize=13;" parent="1" vertex="1">
          <mxGeometry x="1020" y="1190" width="130" height="103" as="geometry" />
        </mxCell>
        <mxCell id="C0sIoQWcLX1TJ2bj2l7G-29" value="NHẤP VÀO ĐỂ NGHE LẠI PHÁT ÂM CỦA MÌNH" style="rounded=0;whiteSpace=wrap;html=1;fontFamily=Times New Roman;fontSize=13;" parent="1" vertex="1">
          <mxGeometry x="1150" y="1190" width="130" height="103" as="geometry" />
        </mxCell>
      </root>
    </mxGraphModel>
  </diagram>
</mxfile>
